#!OML:ASF G:\JayActor3\Patient Classification 1\Patient 1\Session 5\male.ASF
:FULLY-SPECIFIED
:DEGREES
314
root 6.90544 16.5002 -5.63425 500.95 -83.1648 -503.419
lowerback -0.0388411 1.45211 5.26285
upperback 1.32709 1.89972 -0.998967
thorax 1.5956 1.0215 -3.95114
lowerneck -6.7322 -1.2394 1.20384
upperneck 0.184932 -1.89813 4.06391
head 1.22053 -0.89411 1.00385
rclavicle 3.10601e-017 7.95139e-016
rhumerus -30.1755 -7.387 -88.3879
rradius 24.9315
rwrist 8.15649
rhand -17.3773 -5.16373
rfingers 7.12502
rthumb 8.87127 -34.9573
lclavicle 3.10601e-017 7.95139e-016
lhumerus -37.7693 19.472 73.6575
lradius 18.051
lwrist 4.05297
lhand -15.9068 15.0134
lfingers 7.12502
lthumb 10.29 44.7417
rfemur 8.56379 -1.61018 25.3508
rtibia 49.6398
rfoot 7.46562 -13.8287
rtoes 9.18567
lfemur -22.4968 5.84026 -19.4496
ltibia 31.7615
lfoot -7.90511 5.66153
ltoes -0.585629
315
root 6.73313 16.5221 -5.63188 505.942 -83.333 -508.449
lowerback 0.134012 1.45933 4.58435
upperback 1.26686 1.92578 -1.12901
thorax 1.41929 1.02144 -3.70889
lowerneck -6.81093 -1.19629 1.21094
upperneck 0.341453 -1.8455 3.98808
head 1.28225 -0.864486 0.980341
rclavicle 3.10228e-014 -1.66979e-014
rhumerus -30.3942 -7.8658 -88.1586
rradius 24.4867
rwrist 8.57985
rhand -17.1481 -5.20138
rfingers 7.12502
rthumb 9.0924 -34.9854
lclavicle 3.10228e-014 -1.66979e-014
lhumerus -37.5168 19.126 74.0107
lradius 18.3122
lwrist 4.46327
lhand -15.8978 15.0335
lfingers 7.12502
lthumb 10.2988 44.7613
rfemur 6.82325 -1.21408 24.7393
rtibia 52.5947
rfoot 8.74493 -15.6556
rtoes 10.394
lfemur -21.5632 6.01397 -20.0747
ltibia 31.3679
lfoot -8.21096 5.72362
ltoes -0.284941
316
root 6.56246 16.5427 -5.62917 510.934 -83.4476 -513.485
lowerback 0.273285 1.45962 3.94148
upperback 1.23833 1.93636 -1.25535
thorax 1.29428 1.01662 -3.48173
lowerneck -6.87962 -1.14662 1.232
upperneck 0.441876 -1.78306 3.90545
head 1.324 -0.831597 0.952657
rclavicle -7.57556e-015 1.59028e-015
rhumerus -30.5399 -8.306 -87.9439
rradius 24.0319
rwrist 9.0177
rhand -16.9618 -5.24793
rfingers 7.12502
rthumb 9.27218 -35.024
lclavicle -7.57556e-015 1.59028e-015
lhumerus -37.2038 18.7855 74.3761
lradius 18.5707
lwrist 4.83571
lhand -15.9294 15.023
lfingers 7.12502
lthumb 10.2683 44.7523
rfemur 5.0994 -0.832733 24.156
rtibia 55.3879
rfoot 9.56074 -17.2481
rtoes 10.7438
lfemur -20.6139 6.19817 -20.6793
ltibia 30.9502
lfoot -8.56128 5.76645
ltoes -0.152774
317
root 6.39298 16.5619 -5.62606 515.747 -83.5151 -518.35
lowerback 0.378107 1.44927 3.33871
upperback 1.23934 1.92805 -1.37162
thorax 1.21863 1.00461 -3.26555
lowerneck -6.92982 -1.08956 1.2649
upperneck 0.488316 -1.70931 3.81309
head 1.34489 -0.794695 0.920296
rclavicle 2.36119e-014 -2.70347e-014
rhumerus -30.6191 -8.70247 -87.7415
rradius 23.5681
rwrist 9.4681
rhand -16.8282 -5.28925
rfingers 7.12502
rthumb 9.40114 -35.0596
lclavicle 2.36119e-014 -2.70347e-014
lhumerus -36.8351 18.4778 74.7395
lradius 18.8079
lwrist 5.14599
lhand -15.9928 14.9442
lfingers 7.12502
lthumb 10.2071 44.6765
rfemur 3.4073 -0.478933 23.6083
rtibia 58.0043
rfoot 9.81862 -18.389
rtoes 10.2503
lfemur -19.6574 6.3582 -21.2526
ltibia 30.5323
lfoot -8.95022 5.81633
ltoes -0.154904
318
root 6.22439 16.5795 -5.62259 519.929 -83.53 -522.593
lowerback 0.453944 1.42769 2.82187
upperback 1.26596 1.90162 -1.46463
thorax 1.1867 0.985583 -3.0727
lowerneck -6.95731 -1.02453 1.30281
upperneck 0.486096 -1.62319 3.71669
head 1.34603 -0.753022 0.886258
rclavicle -5.11094e-015 1.03368e-014
rhumerus -30.6488 -9.07282 -87.5423
rradius 23.1078
rwrist 9.94662
rhand -16.745 -5.31364
rfingers 7.12502
rthumb 9.48141 -35.0803
lclavicle -5.11094e-015 1.03368e-014
lhumerus -36.4194 18.1725 75.1161
lradius 19.0345
lwrist 5.42077
lhand -16.0942 14.8144
lfingers 7.12502
lthumb 10.1093 44.5516
rfemur 1.75761 -0.152519 23.1511
rtibia 60.4323
rfoot 9.55197 -18.9601
rtoes 9.34411
lfemur -18.7036 6.47819 -21.7438
ltibia 30.1386
lfoot -9.37256 5.88389
ltoes -0.236179
319
root 6.05678 16.5958 -5.61853 523.27 -83.5078 -525.991
lowerback 0.499113 1.39335 2.41299
upperback 1.3065 1.85638 -1.53144
thorax 1.18819 0.958824 -2.91266
lowerneck -6.95805 -0.952643 1.343
upperneck 0.447001 -1.52636 3.62003
head 1.33063 -0.707068 0.852152
rclavicle -9.85848e-015 -1.03368e-014
rhumerus -30.6481 -9.43119 -87.3401
rradius 22.6576
rwrist 10.4623
rhand -16.7091 -5.29544
rfingers 7.12502
rthumb 9.51606 -35.0606
lclavicle -9.85848e-015 -1.03368e-014
lhumerus -35.9735 17.8501 75.5061
lradius 19.2579
lwrist 5.67485
lhand -16.2217 14.6423
lfingers 7.12502
lthumb 9.98629 44.3854
rfemur 0.136877 0.150046 22.8069
rtibia 62.6638
rfoot 8.84253 -18.9791
rtoes 8.32006
lfemur -17.7789 6.55481 -22.1377
ltibia 29.7924
lfoot -9.8282 5.9677
ltoes -0.339349
320
root 5.89047 16.6107 -5.6138 525.4 -83.4601 -528.169
lowerback 0.516954 1.34716 2.15767
upperback 1.35912 1.79448 -1.56331
thorax 1.22073 0.925775 -2.80223
lowerneck -6.94253 -0.876999 1.38435
upperneck 0.383614 -1.4236 3.52367
head 1.30468 -0.658813 0.818157
rclavicle -4.51334e-014 9.54166e-015
rhumerus -30.6252 -9.80199 -87.1274
rradius 22.2314
rwrist 11.0282
rhand -16.7113 -5.23759
rfingers 7.12502
rthumb 9.5139 -35.0028
lclavicle -4.51334e-014 9.54166e-015
lhumerus -35.4909 17.518 75.9047
lradius 19.474
lwrist 5.89383
lhand -16.3697 14.4669
lfingers 7.12502
lthumb 9.84353 44.2168
rfemur -1.46171 0.439468 22.6273
rtibia 64.6884
rfoot 7.786 -18.6059
rtoes 7.50771
lfemur -16.8979 6.58816 -22.3921
ltibia 29.511
lfoot -10.3105 6.06341
ltoes -0.520656
321
root 5.72544 16.6245 -5.60876 526.18 -83.3984 -528.987
lowerback 0.515411 1.2906 2.07052
upperback 1.41992 1.71839 -1.55529
thorax 1.2761 0.887763 -2.74481
lowerneck -6.91991 -0.799919 1.42659
upperneck 0.312131 -1.31872 3.4277
head 1.27508 -0.609703 0.784207
rclavicle -1.70334e-014 1.74931e-014
rhumerus -30.5987 -10.18 -86.9084
rradius 21.8503
rwrist 11.6062
rhand -16.7571 -5.14677
rfingers 7.12502
rthumb 9.4697 -34.914
lclavicle -1.70334e-014 1.74931e-014
lhumerus -34.9885 17.0931 76.3465
lradius 19.7265
lwrist 6.17252
lhand -16.532 14.3486
lfingers 7.12502
lthumb 9.68687 44.1058
rfemur -3.03859 0.733595 22.6405
rtibia 66.4944
rfoot 6.49072 -18.1056
rtoes 6.88828
lfemur -16.0635 6.59233 -22.4863
ltibia 29.2973
lfoot -10.812 6.16314
ltoes -0.77612
322
root 5.56168 16.6372 -5.60293 525.966 -83.3532 -528.801
lowerback 0.496549 1.21932 2.11288
upperback 1.48647 1.62227 -1.51996
thorax 1.34908 0.841513 -2.73189
lowerneck -6.89843 -0.723353 1.47536
upperneck 0.243697 -1.21521 3.32761
head 1.24677 -0.561228 0.747832
rclavicle -8.72789e-015 1.59028e-015
rhumerus -30.5795 -10.5434 -86.6931
rradius 21.5292
rwrist 12.1552
rhand -16.8495 -5.0412
rfingers 7.12502
rthumb 9.38052 -34.8125
lclavicle -8.72789e-015 1.59028e-015
lhumerus -34.4678 16.6169 76.8059
lradius 19.9997
lwrist 6.47684
lhand -16.6768 14.247
lfingers 7.12502
lthumb 9.5472 44.0107
rfemur -4.59321 1.01968 22.7878
rtibia 68.0745
rfoot 5.03405 -17.6644
rtoes 6.18503
lfemur -15.2725 6.56954 -22.4701
ltibia 29.1423
lfoot -11.3269 6.25498
ltoes -1.09432
323
root 5.39871 16.6492 -5.5963 525.012 -83.3336 -527.871
lowerback 0.464073 1.13391 2.25224
upperback 1.55869 1.50666 -1.46396
thorax 1.43639 0.787013 -2.75224
lowerneck -6.8833 -0.648871 1.5286
upperneck 0.189109 -1.11532 3.22218
head 1.22415 -0.514262 0.708948
rclavicle 1.13059e-015 -1.70955e-014
rhumerus -30.5824 -10.8782 -86.486
rradius 21.2895
rwrist 12.6327
rhand -16.9695 -4.95374
rfingers 7.12502
rthumb 9.26475 -34.7302
lclavicle 1.13059e-015 -1.70955e-014
lhumerus -33.9333 16.1203 77.2668
lradius 20.2849
lwrist 6.78231
lhand -16.802 14.2045
lfingers 7.12502
lthumb 9.42641 43.9737
rfemur -6.11483 1.2928 23.0267
rtibia 69.4247
rfoot 3.49142 -17.3457
rtoes 5.34784
lfemur -14.5059 6.5301 -22.375
ltibia 29.0252
lfoot -11.8509 6.32784
ltoes -1.44471
324
root 5.23638 16.6601 -5.58933 523.659 -83.3467 -526.542
lowerback 0.427368 1.03483 2.43581
upperback 1.63299 1.37213 -1.39568
thorax 1.5275 0.723816 -2.78518
lowerneck -6.88203 -0.575443 1.58387
upperneck 0.159258 -1.01801 3.114
head 1.21206 -0.467973 0.668834
rclavicle -2.91965e-015 2.38542e-015
rhumerus -30.6114 -11.144 -86.3002
rradius 21.1308
rwrist 12.9749
rhand -17.1162 -4.88706
rfingers 7.12502
rthumb 9.12324 -34.6697
lclavicle -2.91965e-015 2.38542e-015
lhumerus -33.4077 15.5336 77.7609
lradius 20.6253
lwrist 7.16353
lhand -16.9113 14.2395
lfingers 7.12502
lthumb 9.32098 44.0135
rfemur -7.59684 1.54159 23.3037
rtibia 70.5529
rfoot 1.89824 -17.1439
rtoes 4.49101
lfemur -13.7499 6.48441 -22.2449
ltibia 28.9197
lfoot -12.3678 6.37753
ltoes -1.8319
